<svg xmlns="http://www.w3.org/2000/svg" viewBox="0 0 1400 336"><title>video to scorm</title><rect x="90.44" y="27.98" width="1218.37" height="280.05" fill="#fff"/><path d="M1368,0H32A32,32,0,0,0,0,32V304a32,32,0,0,0,32,32H1368a32,32,0,0,0,32-32V32A32,32,0,0,0,1368,0ZM72,296a8,8,0,0,1-8,8H32a8,8,0,0,1-8-8V280a8,8,0,0,1,8-8H64a8,8,0,0,1,8,8Zm0-80a8,8,0,0,1-8,8H32a8,8,0,0,1-8-8V200a8,8,0,0,1,8-8H64a8,8,0,0,1,8,8Zm0-80a8,8,0,0,1-8,8H32a8,8,0,0,1-8-8V120a8,8,0,0,1,8-8H64a8,8,0,0,1,8,8Zm0-80a8,8,0,0,1-8,8H32a8,8,0,0,1-8-8V40a8,8,0,0,1,8-8H64a8,8,0,0,1,8,8ZM1304,288a16,16,0,0,1-16,16H112a16,16,0,0,1-16-16V48a16,16,0,0,1,16-16H1288a16,16,0,0,1,16,16Zm72,8a8,8,0,0,1-8,8h-32a8,8,0,0,1-8-8V280a8,8,0,0,1,8-8h32a8,8,0,0,1,8,8Zm0-80a8,8,0,0,1-8,8h-32a8,8,0,0,1-8-8V200a8,8,0,0,1,8-8h32a8,8,0,0,1,8,8Zm0-80a8,8,0,0,1-8,8h-32a8,8,0,0,1-8-8V120a8,8,0,0,1,8-8h32a8,8,0,0,1,8,8Zm0-80a8,8,0,0,1-8,8h-32a8,8,0,0,1-8-8V40a8,8,0,0,1,8-8h32a8,8,0,0,1,8,8Z"/><path d="M167.78,72.54a12.28,12.28,0,0,1,6.84-11H142.45c-13.91,0-23,15.17-16.74,28.08l42.07,87.25Z" fill="#c62a2a"/><path d="M299.21,138l-112.8,54.39a13.16,13.16,0,0,1-11,.21l32.34,67.06a18.41,18.41,0,0,0,33.46,0L300,137.6Z" fill="#c62a2a"/><path d="M306.41,61.58H186.7l112.51,54.25a12.22,12.22,0,0,1,6.94,9.07l17-35.24C329.36,76.75,320.32,61.58,306.41,61.58Z" fill="#c62a2a"/><path d="M356.59,151.32l17.14,46.46,16.55-46.21a22.52,22.52,0,0,0,1.46-5.33q0-3.26-3.07-3.26a20,20,0,0,0-3.44.44,19.48,19.48,0,0,1-3.45.45q-4.83,0-4.83-4.82,0-5.1,7-5.11h1.17a7.44,7.44,0,0,0,1.17.11l6.16.63a15,15,0,0,0,4.24.6,89.07,89.07,0,0,0,9.67-.84,56.42,56.42,0,0,1,5.86-.5q6.3,0,6.3,5c0,3.3-1.71,5-5.13,5a5.64,5.64,0,0,1-2.34-.36A15.85,15.85,0,0,0,408,143q-2.62,0-5.42,7.12l-20.65,53.44q-2.64,6.83-8.93,6.83-6,0-8.65-6.84l-21.09-55.05q-2.06-5.5-4.83-5.5a16.44,16.44,0,0,0-3.08.44,15.82,15.82,0,0,1-3.08.45q-4.83,0-4.83-4.59,0-5.34,6.74-5.34a7.72,7.72,0,0,1,1.76.15l6.15.79a47,47,0,0,0,6.15.4,67.94,67.94,0,0,0,7.32-.57l4.84-.58a9,9,0,0,1,2.05-.19q6.44,0,6.44,5.12c0,3.2-1.85,4.81-5.56,4.81a11.85,11.85,0,0,1-2.49-.18,20.65,20.65,0,0,0-3.52-.71c-1.56,0-2.34.7-2.34,2.08a11.13,11.13,0,0,0,.58,3Z"/><path d="M446.53,165.05V184.3q0,7.41.14,8.74c.49,4.44,1.81,6.67,4,6.67a21.46,21.46,0,0,0,3.66-.75,6.39,6.39,0,0,1,2.2-.29q5.56,0,5.56,4.89a4.44,4.44,0,0,1-1.83,3.55,7.14,7.14,0,0,1-4.63,1.48,57.3,57.3,0,0,1-7.13-.66,56,56,0,0,0-7.13-.67,69.82,69.82,0,0,0-8.53.59,76.06,76.06,0,0,1-7.64.74c-3.92,0-5.88-1.67-5.88-5s1.68-4.89,5-4.89a20.42,20.42,0,0,1,3.47.44,19.66,19.66,0,0,0,3.47.45q3.56,0,4.29-9.48V152.16q-.74-9.33-4.43-9.33a15,15,0,0,0-3.33.52,14.85,14.85,0,0,1-3.18.52c-3.54,0-5.32-1.58-5.32-4.74q0-5,6.45-5a35.58,35.58,0,0,1,3.95.15c3.13.4,5.13.59,6,.59a25.74,25.74,0,0,0,3.59-.37,27.25,27.25,0,0,1,3.59-.37q4.25,0,4.24,5.78c0,.39,0,1-.11,1.78s-.12,1.38-.12,1.77q-.12,1.19-.24,9.19Q446.54,158.69,446.53,165.05Zm-7.62-38.81a7.86,7.86,0,0,1-5.79-2.44,8,8,0,0,1-2.41-5.85,7.79,7.79,0,0,1,2.41-5.78,8.26,8.26,0,0,1,11.58,0,7.79,7.79,0,0,1,2.41,5.78,8,8,0,0,1-2.41,5.85A7.86,7.86,0,0,1,438.91,126.24Z"/><path d="M501,131.43q14.49,0,21.67,11.4v-15a49.31,49.31,0,0,0-.29-7.26c-.49-3.06-1.85-4.59-4.1-4.59a17.18,17.18,0,0,0-3.3.45,17.65,17.65,0,0,1-3.29.44c-3.62,0-5.42-1.58-5.42-4.74s2.44-4.89,7.32-4.89c.78,0,2.2.1,4.25.3,3.13.3,4.74.44,4.83.44a27.5,27.5,0,0,0,3.81-.37,29.18,29.18,0,0,1,3.81-.37q4.1,0,4.1,5.94v1.63c-.1.3-.19,2.92-.29,7.86,0,.6-.15,4.4-.44,11.43-.2,4.94-.29,8.7-.29,11.27v39.31q.15,9.79.89,12.17a3.33,3.33,0,0,0,3.58,2.37,11.49,11.49,0,0,0,3-.3c1.59-.19,2.68-.29,3.28-.29q5.52,0,5.52,4.89c0,3.36-2.2,5-6.6,5a39.49,39.49,0,0,1-4.46-.37,42.38,42.38,0,0,0-4.47-.37c-.29,0-1.42.1-3.37.3a13.08,13.08,0,0,1-3.08.44c-2.63,0-3.95-1.77-3.95-5.33V200q-7.74,10.51-22.5,10.52t-24-11q-9.06-11-9.05-28.74t8.93-28.66Q486.06,131.44,501,131.43Zm21.08,52.28a107.49,107.49,0,0,0,.59-12.59q0-9.92-.73-13.48a18.7,18.7,0,0,0-6.34-11.55,20.67,20.67,0,0,0-13.57-4.89q-10.33,0-16.16,7.85t-5.82,21.48q0,14.07,6.05,22.14t16.52,8.07a19.37,19.37,0,0,0,13.27-4.66A18.66,18.66,0,0,0,522.1,183.71Z"/><path d="M622.59,164.46q0,5.63-.73,6.88c-.49.84-1.9,1.26-4.25,1.26H571a4,4,0,0,0-2.49.52,2.17,2.17,0,0,0-.58,1.7q0,11.12,6.59,18.52a21,21,0,0,0,16.4,7.4,20.82,20.82,0,0,0,11.79-3.55,16.18,16.18,0,0,0,7-9l1.32-4.29a4.55,4.55,0,0,1,4.83-3.56q5.42,0,5.42,5.63,0,9.63-9.66,17.11a35,35,0,0,1-22,7.48q-15.37,0-24.46-10.44T556.09,172q0-18.07,9.67-29.33T591,131.43q13.77,0,22.71,9.33T622.59,164.46Zm-53.17-3.86c0,1.39,1.07,2.08,3.22,2.08h35c2.05,0,3.08-.69,3.08-2.08A18.52,18.52,0,0,0,604.87,147a19,19,0,0,0-13.77-5.78,21.94,21.94,0,0,0-14.94,6Q569.42,153.2,569.42,160.6Z"/><path d="M667.12,210.52q-15.37,0-24.61-10.74T633.28,171q0-18.06,9.3-28.81t25-10.73q16,0,25.19,10.51T702,170.53q0,18.08-9.52,29T667.12,210.52Zm.73-69.32q-10.25,0-16.11,7.26t-6.45,20.59V171q0,13.92,5.79,21.85t16.19,7.92q10.68,0,16.77-7.92t6.08-22Q690.12,141.21,667.85,141.2Z"/><path d="M741.7,198.37a23.34,23.34,0,0,0-5.34,12.38,27.82,27.82,0,0,1,21.18-9.43q11.46,0,24.09,10.22,14,11.19,21.57,11.2A11.52,11.52,0,0,0,812,219.1a13.09,13.09,0,0,0,3.4-9.33,14.1,14.1,0,0,0-.77-4.32,9.66,9.66,0,0,1-7,3.14q-8.35,0-8.35-8.25a9.55,9.55,0,0,1,3.3-7.47,12.67,12.67,0,0,1,8.74-3,14.37,14.37,0,0,1,11.57,5.21q4.37,5.2,4.37,13.85a30.51,30.51,0,0,1-7.58,20.83q-7.58,8.64-18.46,8.65-10.31,0-24.78-11.2t-25.35-11.2q-10.89,0-13.61,7.85h2.34c3.75,0,5.63,1.91,5.63,5.7q0,8.85-9.72,8.85a12.22,12.22,0,0,1-10.39-5.6q-4-5.61-4-15,0-34.38,46.83-49.51l14-4.52q23.5-7.66,23.51-25.74,0-12.18-8.45-19.25t-23.22-7.08q-13,0-21.57,5.31t-10.11,14.54q10.5.78,10.49,9.23a11.85,11.85,0,0,1-3.69,8.75,12.52,12.52,0,0,1-9.13,3.63,13.27,13.27,0,0,1-10.59-4.62q-4-4.6-4-12.08,0-16.11,14.38-26.92t35.56-10.81q20.6,0,33.71,10.91t13.12,28.19a35.46,35.46,0,0,1-6.32,20.83,38.07,38.07,0,0,1-17.59,13.56q-3.5,1.38-23.31,8.25a167.84,167.84,0,0,0-22.74,9.43A36.69,36.69,0,0,0,741.7,198.37Z"/><path d="M877.53,131.43q9.78,0,16.35,5.18V136q0-5.47,4.68-5.48,4.85,0,4.84,4.74c0,.59-.08,2.07-.25,4.44a37,37,0,0,0-.48,5.92q0,1.79.36,5.19a51.06,51.06,0,0,1,.37,5.18c0,3.76-1.59,5.63-4.76,5.63s-4.67-1.58-4.76-4.74V152q-.15-4.44-5.06-7.62a20.57,20.57,0,0,0-11.49-3.19,18,18,0,0,0-11.28,3.48,10.53,10.53,0,0,0-4.54,8.67q0,9.48,12.89,11.25l8.49,1.19q24.9,3.41,24.9,20.88a21.25,21.25,0,0,1-8,17.26q-8,6.58-21,6.59a33.16,33.16,0,0,1-21-7v2.81c0,3.56-1.66,5.33-5,5.33-3.62,0-5.42-2-5.42-6.07,0,.69.29-1.87.88-7.7a30.36,30.36,0,0,0,.29-4.15,36,36,0,0,0-.59-6.66,28.2,28.2,0,0,1-.58-4.89q0-5.19,4.68-5.19c2.06,0,3.35.5,3.89,1.49s.85,3.6,1,7.85,2.29,7.7,6.59,10.36,9.76,4,16.41,4a18.55,18.55,0,0,0,11.86-3.7,11.44,11.44,0,0,0,4.69-9.33q0-10.07-15.82-11.7-15.09-1.63-23-6t-7.91-15.33a20.82,20.82,0,0,1,7.74-16.81Q865.12,131.42,877.53,131.43Z"/><path d="M961.4,159.12q0-5.93,7.33-6.81a11.58,11.58,0,0,0-4.91-8.15q-4.17-3-10.77-3a19.41,19.41,0,0,0-16.26,8.15q-6.15,8.15-6.15,21.62,0,13.92,5.79,21.85t16,7.92a17.7,17.7,0,0,0,11.2-3.7,18.65,18.65,0,0,0,6.52-10.22c1-3.46,1.56-5.43,1.76-5.92a5.07,5.07,0,0,1,4.69-3,5.57,5.57,0,0,1,4.1,1.63,5.68,5.68,0,0,1,1.61,4.15A22.25,22.25,0,0,1,980,192.6a30.85,30.85,0,0,1-5.56,8.59q-8.64,9.33-22.41,9.33-14.94,0-24.1-10.67t-9.15-28q0-18.36,9.44-29.4t25.13-11q11.71,0,19.48,6.44a20.36,20.36,0,0,1,7.76,16.37,13.52,13.52,0,0,1-3,9,9.63,9.63,0,0,1-7.69,3.55,8.64,8.64,0,0,1-6.08-2.22A7.14,7.14,0,0,1,961.4,159.12Z"/><path d="M1027.17,210.52q-15.38,0-24.61-10.74T993.33,171q0-18.06,9.3-28.81t25-10.73q16,0,25.19,10.51t9.23,28.59q0,18.08-9.52,29T1027.17,210.52Zm.73-69.32q-10.25,0-16.11,7.26t-6.45,20.59V171q0,13.92,5.79,21.85t16.19,7.92q10.68,0,16.77-7.92t6.08-22Q1050.17,141.21,1027.9,141.2Z"/><path d="M1095.57,138.17v4.07q7.62-10.81,20.36-10.81,10.26,0,16.63,5.85a19.48,19.48,0,0,1,6.37,15q0,6.52-3.22,10.59a10.29,10.29,0,0,1-8.5,4.07,8.31,8.31,0,0,1-5.71-2.07,6.48,6.48,0,0,1-2.34-5,6,6,0,0,1,1.75-4.22,5.52,5.52,0,0,1,4.1-1.85,8.73,8.73,0,0,1,1.91.45,7.57,7.57,0,0,0,.88-3.26,9,9,0,0,0-3.74-7.26,14.53,14.53,0,0,0-9.3-3q-11.43,0-15.23,10.36-2.35,6.38-2.35,19.26v9.78q0,9.92.15,11.1.74,8.44,4.54,8.45a16.43,16.43,0,0,0,4-.51,12,12,0,0,1,2.78-.38c3.12,0,4.69,1.56,4.69,4.67q0,5.1-6,5.1h-.58a62.28,62.28,0,0,1-6.65-.52,64.07,64.07,0,0,0-6.64-.51c-3.89,0-7,.1-9.19.29l-8.18.74c-4,0-6-1.72-6-5.18q0-4.59,5.61-4.59a13.25,13.25,0,0,1,2.22.14l2.22.45a12.14,12.14,0,0,0,2.07.3q3.69,0,4-6.82v-7.55l-.44-33.62q-.43-8.75-4.4-8.74a16.66,16.66,0,0,0-3.22.44,16.06,16.06,0,0,1-3.22.45q-4.83,0-4.83-4.74c0-3.46,2.09-5.19,6.29-5.19a40.23,40.23,0,0,1,4.4.37,37.7,37.7,0,0,0,4.39.37,30.51,30.51,0,0,0,3.81-.37,9.5,9.5,0,0,1,2.78-.37Q1095.57,133.94,1095.57,138.17Z"/><path d="M1169.4,138.39v4.29q5.26-6.36,10-8.81a25.16,25.16,0,0,1,11.72-2.44q14.36,0,21.09,11.25,5-6.21,10.11-8.74t13.18-2.51A30.89,30.89,0,0,1,1250.4,135a21.34,21.34,0,0,1,10.11,11.28q1.89,4.89,1.9,15.44v25.53q0,6.09.14,7.42c.49,3.56,1.74,5.34,3.78,5.34a13.38,13.38,0,0,0,3-.52,14,14,0,0,1,3.05-.52c3.38,0,5.08,1.49,5.08,4.45,0,3.46-2,5.18-5.86,5.18a62.57,62.57,0,0,1-6.67-.52,65.09,65.09,0,0,0-6.81-.51q-2.49,0-7.25.51a71.28,71.28,0,0,1-7.25.52c-4.1,0-6.15-1.72-6.15-5.18,0-3,1.56-4.45,4.69-4.45.39,0,1.36.1,2.93.3a7.39,7.39,0,0,0,2.34.3,3,3,0,0,0,3.15-2.52q.66-2.52.8-12.59V165.64q0-10.21-1.53-14.89a13.37,13.37,0,0,0-5.76-7.33,17.74,17.74,0,0,0-9.63-2.66q-10.35,0-14.44,7.25-3.21,5.79-3.2,20.15v10.51q0,13.94.66,17.41c.44,2.32,1.58,3.48,3.44,3.48a15.9,15.9,0,0,0,2.56-.3,15.9,15.9,0,0,1,2.56-.3,4.75,4.75,0,0,1,4.84,4.82q0,4.82-6.89,4.81a53.1,53.1,0,0,1-6.51-.59,53.56,53.56,0,0,0-6.52-.59,43,43,0,0,0-6.74.59,41.53,41.53,0,0,1-6.45.59c-4,0-6-1.67-6-5,0-3.06,1.46-4.6,4.39-4.6a5.88,5.88,0,0,1,2.49.42,11.53,11.53,0,0,0,3.08.62q3.51,0,3.66-7.59l.44-7V163.83q0-12.95-3.44-18t-12.23-5.06q-9.67,0-14.8,7.14-4.25,5.81-4.24,20.25v19.79c0,4,0,6.31.14,7,.39,3.37,1.47,5.06,3.22,5.06a12,12,0,0,0,3.08-.83,3,3,0,0,0,.88-.21h1q5.71,0,5.72,4.89,0,4.74-6.6,4.74a53.78,53.78,0,0,1-6.15-.44,72.41,72.41,0,0,0-8.49-.59c-1.17,0-3.32.14-6.45.44q-6.3.58-7.61.59c-3.91,0-5.86-1.67-5.86-5,0-3.06,1.88-4.6,5.67-4.6h.89a4.1,4.1,0,0,0,.9.15l3.73.74a.82.82,0,0,0,.59.15q4,0,4.33-7.26v-31.1q0-12.58-.66-15.7t-3.59-3.11a37.07,37.07,0,0,0-4.1.74,12.38,12.38,0,0,1-2.34.3c-3.62,0-5.42-1.58-5.42-4.74q0-5,6-5a43.49,43.49,0,0,1,4.4.3,45.44,45.44,0,0,0,4.83.29h2.64l3.51-.59h.44Q1169.41,134.09,1169.4,138.39Z"/></svg>