<svg xmlns="http://www.w3.org/2000/svg" viewBox="0 0 441 337"><path d="M408.5.5H32.5a32,32,0,0,0-32,32v272a32,32,0,0,0,32,32h376a32,32,0,0,0,32-32V32.5A32,32,0,0,0,408.5.5Zm-336,296a8,8,0,0,1-8,8h-32a8,8,0,0,1-8-8v-16a8,8,0,0,1,8-8h32a8,8,0,0,1,8,8Zm0-80a8,8,0,0,1-8,8h-32a8,8,0,0,1-8-8v-16a8,8,0,0,1,8-8h32a8,8,0,0,1,8,8Zm0-80a8,8,0,0,1-8,8h-32a8,8,0,0,1-8-8v-16a8,8,0,0,1,8-8h32a8,8,0,0,1,8,8Zm0-80a8,8,0,0,1-8,8h-32a8,8,0,0,1-8-8v-16a8,8,0,0,1,8-8h32a8,8,0,0,1,8,8Zm272,232a16,16,0,0,1-16,16h-216a16,16,0,0,1-16-16V48.5a16,16,0,0,1,16-16h216a16,16,0,0,1,16,16Zm72,8a8,8,0,0,1-8,8h-32a8,8,0,0,1-8-8v-16a8,8,0,0,1,8-8h32a8,8,0,0,1,8,8Zm0-80a8,8,0,0,1-8,8h-32a8,8,0,0,1-8-8v-16a8,8,0,0,1,8-8h32a8,8,0,0,1,8,8Zm0-80a8,8,0,0,1-8,8h-32a8,8,0,0,1-8-8v-16a8,8,0,0,1,8-8h32a8,8,0,0,1,8,8Zm0-80a8,8,0,0,1-8,8h-32a8,8,0,0,1-8-8v-16a8,8,0,0,1,8-8h32a8,8,0,0,1,8,8Z" stroke="#fff" stroke-miterlimit="10"/><path d="M159.72,217.08V111.92c0-8.92,9.74-14.73,18-10.74l109.06,52.59a11.8,11.8,0,0,1,0,21.46l-109,52.59C169.5,231.81,159.72,226,159.72,217.08Z" fill="#c62a2a"/></svg>