<svg xmlns="http://www.w3.org/2000/svg" viewBox="0 0 1280 336">
	<title>video to scorm</title>
	<path d="M1248,0H32A32,32,0,0,0,0,32V304a32,32,0,0,0,32,32H1248a32,32,0,0,0,32-32V32A32,32,0,0,0,1248,0ZM72,296a8,8,0,0,1-8,8H32a8,8,0,0,1-8-8V280a8,8,0,0,1,8-8H64a8,8,0,0,1,8,8Zm0-80a8,8,0,0,1-8,8H32a8,8,0,0,1-8-8V200a8,8,0,0,1,8-8H64a8,8,0,0,1,8,8Zm0-80a8,8,0,0,1-8,8H32a8,8,0,0,1-8-8V120a8,8,0,0,1,8-8H64a8,8,0,0,1,8,8Zm0-80a8,8,0,0,1-8,8H32a8,8,0,0,1-8-8V40a8,8,0,0,1,8-8H64a8,8,0,0,1,8,8ZM1184,288a16,16,0,0,1-16,16H112a16,16,0,0,1-16-16V48a16,16,0,0,1,16-16H1168a16,16,0,0,1,16,16Zm72,8a8,8,0,0,1-8,8h-32a8,8,0,0,1-8-8V280a8,8,0,0,1,8-8h32a8,8,0,0,1,8,8Zm0-80a8,8,0,0,1-8,8h-32a8,8,0,0,1-8-8V200a8,8,0,0,1,8-8h32a8,8,0,0,1,8,8Zm0-80a8,8,0,0,1-8,8h-32a8,8,0,0,1-8-8V120a8,8,0,0,1,8-8h32a8,8,0,0,1,8,8Zm0-80a8,8,0,0,1-8,8h-32a8,8,0,0,1-8-8V40a8,8,0,0,1,8-8h32a8,8,0,0,1,8,8Z" fill="white" />
	<path d="M179.22,216.58V111.42c0-8.92,9.74-14.73,18-10.74l109.06,52.59a11.8,11.8,0,0,1,0,21.46L197.23,227.32C189,231.31,179.22,225.5,179.22,216.58Z" fill="red" />
	<path d="M646.88,131.88c-7.29,0-32.75,3.48-36.33-1.16-4.26-5.5,5.33-18.72-4.65-21.8-12.72-3.92-8.29,20.57-3.93,25.81,8,9.55,23.3,14.45,32.85,22.69,9.38,8.07,13.34,16.93,14.75,29.25,1.57,13.65,2.18,32.17-8.72,42.33-11.55,10.76-31.1,12.63-45.94,10-12.94-2.31-25.34-8.94-30-21.78-1.82-5-7-28.26-2.91-33.29,1.6-2,33.32-3.63,36.14-1,2,1.89.07,14.33.19,17.67.34,9.73,8,22.13,14.2,7,10.8-26.16-27.75-37.13-40.78-50.35-11.6-11.78-13-31.22-9.85-46.73,3.17-15.89,15.32-24.19,30.85-26.6,15-2.32,36.12-.6,46.94,11.4C648.23,104.84,647,119.91,646.88,131.88Z" fill="white" />
	<path d="M753.72,151.86H730.91c-3,0-10.76,1.5-13.41,0-4.58-2.6-.79,1.52-2.9-4.09-2.7-7.2.47-19.29-.08-27.22-.36-5.22.13-11.65-6.7-11.89-9-.33-7.34,12.54-7.43,18.3-.28,16.91,0,33.86,0,50.77,0,6.3-.11,12.6,0,18.89.05,3.09-1,11.5,1.3,14.51,6.46,8.52,11.25.61,12.58-5.62,1.16-5.49-3.06-24.44.33-28.38,2.31-2.69,18.77-.65,22.81-.65,2.48,0,11.13-1.31,13.41,0,4.81,2.77.23-2.78,2.9,4.34,3.85,10.29-.82,33.14-7.22,42.07-18.65,26-73.6,23.56-82.56-9.79-5.54-20.57-2.69-45.61-2.66-66.83,0-12-1.39-25.14,2.34-36.6,6.73-20.66,29.13-27.75,48.86-26.28C753.17,86.4,753.72,119.44,753.72,151.86Z" fill="white" />
	<path d="M857.12,174.43c0,19.27,2.49,42.78-14.37,56.23-16,12.78-45,12.91-61.25.39C759,213.7,766.55,174,766.63,148.7c0-17.57-2.41-39.22,10.81-53,15.39-16,47.47-17,64.8-3.6C864.68,109.41,857.12,149.16,857.12,174.43ZM818,125c0-4.52,1.27-14.38-4.44-16-7.13-2-7.3,6.11-7.72,10.76-.62,7.07-.1,14.44-.1,21.52,0,17.94-.18,35.9,0,53.84,0,3.9-1.6,15.85,2.85,18.57,7,4.28,8.37-4.37,9.14-8.73,1.35-7.69.27-17.1.27-24.95Z" fill="white" />
	<path d="M871.7,86.36c20.76,0,45.11-3.27,65.18,2.14,28.47,7.67,34.14,66.61.6,69.77C963.64,164.76,959,189,959,210.43c0,4.53,2.89,22.65,0,26-1.8,2.07-15.2.35-18.17.35s-16.54,1.79-18.16-.27c-2.38-3,0-17.71,0-21.47,0-8.64.14-17.28,0-25.91C922.54,178.55,924,169,910.82,169v32.27c0,5.25,3.49,31.18,0,34.74s-26.12,1.15-31.74.81c-8.83-.53-7.28.83-7.38-8C871.17,181.31,871.7,133.82,871.7,86.36Zm39.12,25.73v33.45C928.57,145.54,928,112.09,910.82,112.09Z" fill="white" />
	<path d="M1094.86,86.36V212c0,5.06,2.46,17.93,0,22.45s-10.86,2.32-17.09,2.32c-7,0-14.51,2.27-17.1-2.75-3.09-6,0-21.92,0-28.6l0-70.19-7.91,59-4.61,34.39c-1.3,9.7-1.17,8.14-11.57,8.14s-11.66,2.64-14.59-5.64c-3.41-9.63-3.24-22.39-4.7-32.49l-8.84-61.09,0,85.52c0,13.92,2.07,13.7-12.36,13.7-3.54,0-18.94,2.27-21.45,0-1-.91-.1-4.19-.38-5.75-2.26-12.53,0-27.6,0-40.29V135.51c0-13.82-1.09-28.16,0-41.94.81-10.37,2.5-7.21,14.11-7.21,9.09,0,21.64-2.33,30.36,0,1.42.38,4.84-.88,6,0,2.61,2,2.73,16.89,3.2,20.24q3.51,25,7.13,50l3.66-28.57c1.28-10-.11-29.11,4.84-37.86,1.32-2.32-.14-2.66,1.58-3.81,2.48-1.66,13.19,0,16.19,0Z" fill="white" />
	<path d="M553.39,258.31c-.28,5.95-3.1,9.56-8.86,10.25l1.54.54c-8.22,4.84-70.37,7.95-69.25-4-18.84,2.82-56.8-17.72-71.25-25.18-18.49,10.66-52.36,22.2-74.08,11.73-39.2-18.89-8.7-58.15,25.07-55,20,1.86,39,13.84,58.44,14,17.8-8.6,38.8-19.8,51.69-32.72l3,1.86c12.05-26.22,64.33-41.3,13.32-75.51-22.49-15.09-60.23-17.56-86.06-8.36-11.06,3.94-14.29,9.84-23.24,13.87-24.84,11.17-54.73,5.44-26.44-26.38,22.88-25.72,98.82-27.75,129.66-11.74l-.79-.07c96.15,35.08,47.18,123-28.09,145.35-1.14,3.78-8.39,6.56-16.2,8.39,16.25,2.29,36.8,9.64,44.6,18.18C476.56,242.16,549.66,253.06,553.39,258.31ZM384.33,225.65c-9.53-4.81-44.71-15-48.29.38C332,243.31,376.88,230.69,384.33,225.65Z" fill="white" />
</svg>